<svg width="61" height="60" viewBox="0 0 61 60" fill="none" xmlns="http://www.w3.org/2000/svg">
<g clip-path="url(#clip0_1_768)">
<path d="M56.0147 31.102V3.7797C56.0147 2.80495 55.2244 2.01471 54.2497 2.01471H6.96186C5.98711 2.01471 5.19687 2.80495 5.19687 3.7797V33.2801C4.34544 33.4041 3.51307 33.7346 2.77671 34.2813C0.4554 35.9273 -0.0936297 39.611 1.8508 41.8828L9.80067 51.5204C14.7217 57.2798 19.9492 57.9855 27.7206 57.9855C34.3896 57.9855 37.3711 58.0149 43.1832 56.6906L48.8427 55.3369C49.7604 56.6184 51.2172 57.4486 52.855 57.4486H55.643C58.4131 57.4486 60.6667 55.0744 60.6667 52.1562V36.3785C60.6668 33.592 58.6117 31.3032 56.0147 31.102ZM48.0814 34.7327L45.7297 33.5382C41.8631 31.5865 37.3926 31.5143 33.4649 33.3403C32.3934 33.7618 30.0562 35.1759 28.8438 35.1286H20.6835C17.9767 35.1286 15.7745 37.3307 15.7745 40.0376V41.3248C15.7593 41.3088 15.7434 41.2936 15.7284 41.2774L9.90104 34.952C9.54839 34.5692 9.15221 34.249 8.72696 33.992V16.481H23.1708V22.951C23.1708 23.9258 23.9611 24.716 24.9358 24.716H36.073C37.0478 24.716 37.838 23.9258 37.838 22.951V16.481H52.4848V31.1019C50.4226 31.2612 48.703 32.7365 48.0814 34.7327ZM26.7007 16.481H34.3079V21.186H26.7007V16.481ZM52.4847 12.9511H37.838V5.54469H52.4848V12.9511H52.4847ZM34.308 5.54469V12.9512H26.7008V5.54469H34.308ZM23.1707 5.54469V12.9512H8.72685V5.54469H23.1707ZM42.364 53.2568C36.9949 54.4866 33.7613 54.4368 27.7839 54.4368C20.4886 54.4368 16.9637 54.3189 12.5239 49.2741L4.57406 39.6364C3.19125 37.8358 5.69589 35.7101 7.30485 37.3436L13.1323 43.6691C14.6724 45.2941 16.6105 46.1885 18.9992 46.2411H35.1557C36.1304 46.2411 36.9207 45.4509 36.9207 44.4761C36.9207 43.5014 36.1304 42.7111 35.1557 42.7111H19.3043V40.0374C19.3043 39.2771 19.9229 38.6584 20.6834 38.6584H28.8437C30.6821 38.79 33.3356 37.255 34.9531 36.5411C37.8947 35.1733 41.243 35.2275 44.1351 36.6872L47.8315 38.5647V51.949L42.364 53.2568ZM57.1369 52.1561C57.1369 53.1279 56.4668 53.9185 55.6431 53.9185H52.8551C52.0315 53.9185 51.3615 53.1279 51.3615 52.1561V36.3785C51.3615 35.4067 52.0316 34.616 52.8551 34.616H55.6431C56.4668 34.616 57.1369 35.4065 57.1369 36.3785V52.1561Z" fill="#242424"/>
</g>
<defs>
<clipPath id="clip0_1_768">
<rect width="60" height="60" fill="white" transform="translate(0.666748)"/>
</clipPath>
</defs>
</svg>
